<?xml version="1.0" encoding="UTF-8"?>
<svg width="3208px" height="2551px" viewBox="0 0 3208 2551" version="1.1" xmlns="http://www.w3.org/2000/svg" xmlns:xlink="http://www.w3.org/1999/xlink">
    <!-- Generator: Sketch 52.5 (67469) - http://www.bohemiancoding.com/sketch -->
    <title>Artboard</title>
    <desc>Created with Sketch.</desc>
    <g id="Artboard" stroke="none" stroke-width="1" fill="none" fill-rule="evenodd">
        <g id="lightbulb" transform="translate(4.000000, 4.000000)">
            <polygon id="Fill-1" fill="#4C6887" points="250 1980 670 1980 670 1807 250 1807"></polygon>
            <path d="M1581.21867,1307 L1579.78584,1307 C1540.2027,1307 1508,1274.85653 1508,1235.35171 L1508,1180 L1517.01153,1180 L1517.01153,1235.35171 C1517.01153,1269.8965 1545.17256,1298.0063 1579.78584,1298.0063 L1581.21867,1298.0063 C1615.83195,1298.0063 1643.98847,1269.8965 1643.98847,1235.35171 L1643.98847,1180 L1653,1180 L1653,1235.35171 C1653,1274.85653 1620.7973,1307 1581.21867,1307" id="Fill-2" fill="#4C6887"></path>
            <polygon id="Fill-3" fill="#4C6887" points="1726 1278 1735 1278 1735 1180 1726 1180"></polygon>
            <polygon id="Fill-4" fill="#4C6887" points="1703 1332 1757 1332 1757 1278 1703 1278"></polygon>
            <polygon id="Fill-5" fill="#4C6887" points="1617 1359 1626 1359 1626 1180 1617 1180"></polygon>
            <polygon id="Fill-6" fill="#4C6887" points="1595 1413 1649 1413 1649 1359 1595 1359"></polygon>
            <polygon id="Fill-7" fill="#FFFFFF" points="1717 1318 1743 1318 1743 1292 1717 1292"></polygon>
            <polygon id="Fill-8" fill="#FFFFFF" points="1610 1398 1634 1398 1634 1374 1610 1374"></polygon>
            <polygon id="Fill-9" fill="#4C6887" points="1339 1184 1803 1184 1803 1157 1339 1157"></polygon>
            <path d="M984,217.931935 C984,294.203841 922.22295,356 846.030057,356 C810.911088,356 476.113247,356 438.632056,356 C373.132036,356 320,302.857821 320,237.280885 C320,171.71294 373.132036,118.530301 438.632056,118.530301 C452.782935,118.530301 466.33203,121.02984 478.933543,125.538901 C501.275853,52.8589577 568.918041,0 648.883304,0 C713.934232,0 770.793729,34.9216179 801.816982,87.1062395 C815.693914,82.3679046 830.56334,79.8234098 846.030057,79.8234098 C922.22295,79.8234098 984,141.660029 984,217.931935" id="Fill-10" fill="#04BCE6"></path>
            <path d="M546,1224.55542 C546,1269.55094 509.435175,1306 464.340054,1306 C443.551109,1306 245.39581,1306 223.214347,1306 C184.443953,1306 153,1274.65103 153,1235.97012 C153,1197.2937 184.443953,1165.92232 223.214347,1165.92232 C231.587422,1165.92232 239.610122,1167.39677 247.066831,1170.05438 C260.291259,1127.18315 300.323904,1096 347.656037,1096 C386.156911,1096 419.806433,1116.60203 438.169701,1147.38183 C446.381065,1144.58978 455.185372,1143.08396 464.340054,1143.08396 C509.435175,1143.08396 546,1179.56439 546,1224.55542" id="Fill-11" fill="#FF008F"></path>
            <path d="M215,1052.81048 C215,1070.59012 200.485229,1085 182.587282,1085 C174.334315,1085 95.6743481,1085 86.8717838,1085 C71.4785584,1085 59,1072.6084 59,1057.31692 C59,1042.02992 71.4785584,1029.63385 86.8717838,1029.63385 C90.1963961,1029.63385 93.3768518,1030.21561 96.3365676,1031.26727 C101.589275,1014.32447 117.478039,1002 136.267955,1002 C151.548558,1002 164.910075,1010.14024 172.198995,1022.30808 C175.460539,1021.20273 178.951832,1020.60754 182.587282,1020.60754 C200.485229,1020.60754 215,1035.02637 215,1052.81048" id="Fill-12" fill="#EBF4FC"></path>
            <path d="M2684,1026.74574 C2684,1053.95136 2661.95328,1076 2634.75663,1076 C2622.22335,1076 2502.71897,1076 2489.34085,1076 C2465.96395,1076 2447,1057.04015 2447,1033.64718 C2447,1010.25872 2465.96395,991.280879 2489.34085,991.280879 C2494.3964,991.280879 2499.22727,992.175594 2503.73009,993.785181 C2511.69764,967.856445 2535.85197,949 2564.38778,949 C2587.60739,949 2607.90152,961.458562 2618.9788,980.07222 C2623.931,978.381704 2629.23821,977.473502 2634.75663,977.473502 C2661.95328,977.473502 2684,999.535632 2684,1026.74574" id="Fill-13" fill="#EBF4FC"></path>
            <path d="M652,205.5 C652,223.448097 666.551903,238 684.504498,238 C702.443599,238 717,223.448097 717,205.5 C717,187.556401 702.443599,173 684.504498,173 C666.551903,173 652,187.556401 652,205.5" id="Fill-14" fill="#4C6887"></path>
            <path d="M717,753.504498 C717,735.551903 702.443599,721 684.495502,721 C666.551903,721 652,735.551903 652,753.504498 C652,771.448097 666.551903,786 684.495502,786 C702.443599,786 717,771.448097 717,753.504498" id="Fill-15" fill="#4C6887"></path>
            <path d="M668,208.946238 L668.040936,750.053762 C668.040936,775.315413 702,775.315413 702,750.053762 L701.954515,208.946238 C701.954515,183.684587 668,183.684587 668,208.946238" id="Fill-16" fill="#EBF4FC"></path>
            <path d="M809,205 C809,222.673452 823.327554,237 841.002246,237 C858.667954,237 873,222.673452 873,205 C873,187.33104 858.667954,173 841.002246,173 C823.327554,173 809,187.33104 809,205" id="Fill-17" fill="#4C6887"></path>
            <path d="M736,551 L768.92517,551 L768.92517,364.167455 C768.92517,355.984548 775.554939,349.33313 783.696761,349.33313 L809.298765,349.33313 C835.598639,349.33313 857,327.851879 857,301.443817 L857,208.687746 C857,183.770751 824.07483,183.770751 824.07483,208.687746 L824.07483,301.443817 C824.07483,309.622232 817.440587,316.278141 809.298765,316.278141 L783.696761,316.278141 C757.396887,316.278141 736,337.759393 736,364.167455 L736,551" id="Fill-18" fill="#EBF4FC"></path>
            <polygon id="Fill-19" fill="#04BCE6" points="728 572 780 572 780 551 728 551"></polygon>
            <polyline id="Fill-20" fill="#D5E0EB" points="376 1753.82031 334.764771 1714 41.2307324 1714 0 1753.82031 0 2039.18419 41.2307324 2079 334.764771 2079 376 2039.18419 376 1753.82031"></polyline>
            <polyline id="Fill-21" fill="#EBF4FC" points="376 1719.8208 334.764771 1680 41.2307324 1680 0 1719.8208 0 2005.18819 41.2307324 2045 334.764771 2045 376 2005.18819 376 1719.8208"></polyline>
            <path d="M67,1897 L67,1863.92161 C67,1798.25832 120.292427,1745 185.997755,1745 C251.703084,1745 305,1798.25832 305,1863.92161 L305,1897 L67,1897" id="Fill-22" fill="#04BCE6"></path>
            <path d="M118,1957.00223 C118,1969.70529 107.705294,1980 95.0022341,1980 C82.2991744,1980 72,1969.70529 72,1957.00223 C72,1944.29471 82.2991744,1934 95.0022341,1934 C107.705294,1934 118,1944.29471 118,1957.00223" id="Fill-23" fill="#FF0593"></path>
            <path d="M193,1957.00223 C193,1969.70529 182.702826,1980 170.002234,1980 C157.301641,1980 147,1969.70529 147,1957.00223 C147,1944.29471 157.301641,1934 170.002234,1934 C182.702826,1934 193,1944.29471 193,1957.00223" id="Fill-24" fill="#FF0593"></path>
            <path d="M229.317031,1927 L304.682969,1927 C308.168073,1927 311,1929.91395 311,1933.5 C311,1937.08605 308.168073,1940 304.682969,1940 L229.317031,1940 C225.827453,1940 223,1937.08605 223,1933.5 C223,1929.91395 225.827453,1927 229.317031,1927" id="Fill-25" fill="#4C6887"></path>
            <path d="M229.317031,1950 L304.682969,1950 C308.168073,1950 311,1952.90935 311,1956.5 C311,1960.08605 308.168073,1963 304.682969,1963 L229.317031,1963 C225.827453,1963 223,1960.08605 223,1956.5 C223,1952.90935 225.827453,1950 229.317031,1950" id="Fill-26" fill="#4C6887"></path>
            <path d="M229.317031,1973 L304.682969,1973 C308.168073,1973 311,1975.91038 311,1979.4977 C311,1983.08962 308.168073,1986 304.682969,1986 L229.317031,1986 C225.827453,1986 223,1983.08962 223,1979.4977 C223,1975.91038 225.827453,1973 229.317031,1973" id="Fill-27" fill="#4C6887"></path>
            <path d="M149,1896 L203.70772,1841.14996 C207.891619,1836.95001 214.674269,1836.95001 218.858168,1841.14996 C223.046533,1845.34543 223.046533,1852.14236 218.862633,1856.33782 L179.309827,1896 L149,1896" id="Fill-28" fill="#FFFFFF"></path>
            <path d="M101.266111,1850 C100.660487,1850 100.041793,1849.91808 99.4274554,1849.7588 C95.5453654,1848.69845 93.2230825,1844.55261 94.2382643,1840.50234 C94.3994735,1839.83792 94.5737536,1839.16894 94.7523908,1838.51361 C95.8503556,1834.49065 99.8718698,1832.14695 103.714747,1833.28922 C107.579409,1834.43604 109.818909,1838.62283 108.720944,1842.65035 L108.2896,1844.32507 C107.435628,1847.74277 104.490293,1850 101.266111,1850" id="Fill-29" fill="#FFFFFF"></path>
            <path d="M122.504716,1812 C120.6394,1812 118.769579,1811.29986 117.318778,1809.89958 C114.318053,1806.999 114.21893,1802.20712 117.084487,1799.18834 C117.963078,1798.25178 118.864196,1797.34251 119.783337,1796.43778 C122.761534,1793.53266 127.51043,1793.5963 130.398515,1796.60145 C133.2866,1799.6066 133.214511,1804.41211 130.236314,1807.32179 C129.456846,1808.08558 128.686389,1808.86301 127.933955,1809.65862 C126.456121,1811.21348 124.482671,1812 122.504716,1812 Z M249.494861,1811.96818 C247.521411,1811.96818 245.547961,1811.1862 244.074632,1809.63589 C243.317693,1808.84937 242.556248,1808.06739 241.772274,1807.3036 C238.789572,1804.39847 238.703965,1799.59751 241.587545,1796.58781 C244.471125,1793.57357 249.22002,1793.49628 252.207228,1796.40141 C253.121864,1797.30159 254.022982,1798.21541 254.910584,1799.14742 C257.780647,1802.17075 257.681524,1806.96717 254.68981,1809.86321 C253.234504,1811.26803 251.364682,1811.96818 249.494861,1811.96818 Z M161.478097,1788.09975 C158.220553,1788.09975 155.224334,1785.94477 154.269148,1782.6441 C153.11121,1778.62512 155.395546,1774.41063 159.378491,1773.24676 C160.608518,1772.87851 161.856567,1772.54208 163.113627,1772.22838 C167.137122,1771.23727 171.205673,1773.71959 172.196903,1777.78858 C173.183628,1781.84849 170.723574,1785.94477 166.695574,1786.94497 C165.650276,1787.20866 164.609484,1787.48599 163.577704,1787.79514 C162.874831,1787.99973 162.167453,1788.09975 161.478097,1788.09975 Z M210.516974,1788.08611 C209.823113,1788.08611 209.115734,1787.98609 208.412862,1787.7815 C207.381081,1787.47689 206.340289,1787.19047 205.294991,1786.93133 C201.262485,1785.94022 198.802432,1781.84394 199.784651,1777.77495 C200.775881,1773.71049 204.839927,1771.23272 208.867927,1772.21474 C210.120482,1772.52389 211.368531,1772.86941 212.607569,1773.23312 C216.590514,1774.39699 218.879355,1778.60238 217.716912,1782.62137 C216.766232,1785.93568 213.765507,1788.08611 210.516974,1788.08611 Z" id="Fill-30" fill="#FFFFFF"></path>
            <path d="M270.733911,1850 C267.51076,1850 264.562012,1847.74277 263.712668,1844.32507 L263.277107,1842.65035 C262.183849,1838.62283 264.422633,1834.43604 268.281703,1833.28922 C272.140773,1832.14695 276.156645,1834.49065 277.245548,1838.51361 C277.424128,1839.16894 277.598352,1839.83792 277.763865,1840.50234 C278.774367,1844.55261 276.448471,1848.69845 272.567623,1849.7588 C271.957837,1849.91808 271.343696,1850 270.733911,1850" id="Fill-31" fill="#FFFFFF"></path>
            <polygon id="Fill-32" fill="#04BCE6" points="2376 1804 2415 1804 2415 1536 2376 1536"></polygon>
            <path d="M2414,1566 C2430.78043,1567.31305 2444,1581.21433 2444,1598.15847 L2444,1736.81724 C2444,1754.72488 2431.09755,1769.63896 2414,1773 L2414,1566" id="Fill-33" fill="#D5E0EB"></path>
            <polyline id="Fill-34" fill="#04BCE6" points="2441 1615.52205 2485.09237 1572 2498 1584.71887 2441 1641 2441 1615.52205"></polyline>
            <path d="M2534,1565.50226 C2534,1581.80317 2520.79764,1595 2504.5,1595 C2488.20687,1595 2475,1581.80317 2475,1565.50226 C2475,1549.21488 2488.20687,1536 2504.5,1536 C2520.79764,1536 2534,1549.21488 2534,1565.50226" id="Fill-35" fill="#4C6887"></path>
            <polyline id="Fill-36" fill="#4C6887" points="1430 1129 1430 1265 1430 1129"></polyline>
            <path d="M1427,1129.34634 L1427,1265.65366 C1427,1267.50177 1428.56338,1269 1430.49765,1269 C1432.43192,1269 1434,1267.50177 1434,1265.65366 L1434,1129.34634 C1434,1127.49823 1432.43192,1126 1430.49765,1126 C1428.56338,1126 1427,1127.49823 1427,1129.34634" id="Fill-37" fill="#4C6887"></path>
            <path d="M1430.5,1440 C1404.30921,1440 1383,1418.72084 1383,1392.55801 L1383,1360.48454 C1383,1358.00908 1385.01191,1356 1387.49088,1356 C1389.96984,1356 1391.98175,1358.00908 1391.98175,1360.48454 L1391.98175,1392.55801 C1391.98175,1413.7699 1409.25815,1431.03091 1430.5,1431.03091 C1451.74185,1431.03091 1469.01825,1413.7699 1469.01825,1392.55801 L1469.01825,1360.48454 C1469.01825,1358.00908 1471.03016,1356 1473.50912,1356 C1475.98809,1356 1478,1358.00908 1478,1360.48454 L1478,1392.55801 C1478,1418.72084 1456.69079,1440 1430.5,1440" id="Fill-38" fill="#4C6887"></path>
            <path d="M1410,1361 L1410,1394.23243 C1410,1405.15025 1418.95434,1414 1430.00227,1414 C1441.04566,1414 1450,1405.15025 1450,1394.23243 L1450,1361 L1410,1361" id="Fill-39" fill="#FF0593"></path>
            <path d="M1426,1435.5179 L1426,1362.4821 C1426,1360.0035 1428.016,1358 1430.5,1358 C1432.984,1358 1435,1360.0035 1435,1362.4821 L1435,1435.5179 C1435,1437.9965 1432.984,1440 1430.5,1440 C1428.016,1440 1426,1437.9965 1426,1435.5179" id="Fill-40" fill="#4C6887"></path>
            <path d="M1459,1290 L1459,1268.19204 C1445.99636,1247.93599 1414.00364,1247.93599 1401,1268.19204 L1401,1290 L1459,1290" id="Fill-41" fill="#04BCE6"></path>
            <path d="M1352,1352.79984 L1352,1361 L1509,1361 L1509,1352.79984 C1505.98603,1319.59864 1485.10353,1298.58067 1459.46236,1289.77293 C1440.96592,1283.40902 1420.0296,1283.40902 1401.52867,1289.77293 C1375.8875,1298.58067 1355.00948,1319.59864 1352,1352.79984" id="Fill-42" fill="#04BCE6"></path>
            <polygon id="Fill-43" fill="#4C6887" points="2324 818 2356 818 2356 596 2324 596"></polygon>
            <polygon id="Fill-44" fill="#D5E0EB" points="2356 723 2610 723 2610 691 2356 691"></polygon>
            <polyline id="Fill-45" fill="#D5E0EB" points="2794 543.435967 2614.43198 723 2592 700.564033 2771.56353 521 2794 543.435967"></polyline>
            <polygon id="Fill-46" fill="#04BCE6" points="2356 786 2388 786 2388 627 2356 627"></polygon>
            <path d="M2647,706.506768 C2647,727.211514 2630.21852,744 2609.50677,744 C2588.79502,744 2572,727.211514 2572,706.506768 C2572,685.788486 2588.79502,669 2609.50677,669 C2630.21852,669 2647,685.788486 2647,706.506768" id="Fill-47" fill="#04BCE6"></path>
            <path d="M2627,706.506685 C2627,716.164778 2619.16178,724 2609.5,724 C2599.8293,724 2592,716.164778 2592,706.506685 C2592,696.839679 2599.8293,689 2609.5,689 C2619.16178,689 2627,696.839679 2627,706.506685" id="Fill-48" fill="#FFFFFF"></path>
            <polygon id="Fill-49" fill="#4C6887" points="2612 532 2644 532 2644 468 2612 468"></polygon>
            <polygon id="Fill-50" fill="#04BCE6" points="2641 532 2834 532 2834 437 2641 437"></polygon>
            <polygon id="Fill-51" fill="#0390B0" points="2641 564 2834 564 2834 532 2641 532"></polygon>
            <polygon id="Fill-52" fill="#04BCE6" points="2834 532 2866 532 2866 468 2834 468"></polygon>
            <polyline id="Fill-53" fill="#4C6887" points="2900 564 2866 532.293781 2866 468.755613 2900 437 2900 564"></polyline>
            <polygon id="Fill-54" fill="#04BCE6" points="2900 564 2930 564 2930 437 2900 437"></polygon>
            <polyline id="Fill-55" fill="#D5E0EB" points="1461 1841 1461 1864.60378 1498.48403 1902 1639.51597 1902 1677 1864.60378 1677 1841 1461 1841"></polyline>
            <polygon id="Fill-56" fill="#FF0593" points="1461 1841 1677 1841 1677 1802 1461 1802"></polygon>
            <polyline id="Fill-57" fill="#D5E0EB" points="1461 1519.44427 1461 1802 1677 1802 1677 1519.44427 1639.51597 1482 1498.48403 1482 1461 1519.44427"></polyline>
            <path d="M1531,1571.00449 C1531,1591.99976 1547.99923,1609 1568.99326,1609 C1589.98279,1609 1607,1591.99976 1607,1571.00449 C1607,1550.01372 1589.98279,1533 1568.99326,1533 C1547.99923,1533 1531,1550.01372 1531,1571.00449" id="Fill-58" fill="#FFFFFF"></path>
            <path d="M1531,1692.00225 C1531,1712.99675 1547.99923,1730 1568.99326,1730 C1589.98279,1730 1607,1712.99675 1607,1692.00225 C1607,1671.00775 1589.98279,1654 1568.99326,1654 C1547.99923,1654 1531,1671.00775 1531,1692.00225" id="Fill-59" fill="#FFFFFF"></path>
            <path d="M1548,1570.50676 C1548,1582.38887 1557.61415,1592 1569.5,1592 C1581.37683,1592 1591,1582.38887 1591,1570.50676 C1591,1558.63366 1581.37683,1549 1569.5,1549 C1557.61415,1549 1548,1558.63366 1548,1570.50676" id="Fill-60" fill="#FF0593"></path>
            <path d="M1547,1692.00222 C1547,1704.14475 1556.8528,1714 1569.00222,1714 C1581.1472,1714 1591,1704.14475 1591,1692.00222 C1591,1679.85525 1581.1472,1670 1569.00222,1670 C1556.8528,1670 1547,1679.85525 1547,1692.00222" id="Fill-61" fill="#04BCE6"></path>
            <polygon id="Fill-62" fill="#4C6887" points="1677 1621 1881 1621 1881 1585 1677 1585"></polygon>
            <polygon id="Fill-63" fill="#4C6887" points="1677 1764 1881 1764 1881 1728 1677 1728"></polygon>
            <polygon id="Fill-64" fill="#4C6887" points="389 780 618 780 618 741 389 741"></polygon>
            <polygon id="Fill-65" fill="#4C6887" points="389 895 618 895 618 856 389 856"></polygon>
            <path d="M250,922.516322 C250,969.168541 287.831736,1007 334.50673,1007 C381.172751,1007 419,969.168541 419,922.516322 L419,714.501624 C419,667.831459 381.172751,630 334.50673,630 C287.831736,630 250,667.831459 250,714.501624 L250,922.516322" id="Fill-66" fill="#D5E0EB"></path>
            <path d="M285,903.088791 C285,930.095504 306.934255,952 334.006749,952 C361.065745,952 383,930.095504 383,903.088791 L383,727.9157 C383,700.904496 361.065745,679 334.006749,679 C306.934255,679 285,700.904496 285,727.9157 L285,903.088791" id="Fill-67" fill="#4C6887"></path>
            <path d="M302,726.953082 L302,739 L366,739 L366,726.953082 C366,709.315053 351.690762,695 334.045268,695 C325.231574,695 317.191965,698.571972 311.34333,704.339644 C305.585231,710.098261 302,718.138595 302,726.953082" id="Fill-68" fill="#FFFFFF"></path>
            <polygon id="Fill-69" fill="#FFFFFF" points="302 798 366 798 366 765 302 765"></polygon>
            <polygon id="Fill-70" fill="#FFFFFF" points="302 858 366 858 366 825 302 825"></polygon>
            <path d="M366,883 L302,883 L302,899.882315 C302,917.653889 316.327345,932 334.045268,932 C342.858962,932 350.903098,928.415741 356.661197,922.640093 C362.419296,916.778241 366,908.811204 366,899.882315 L366,883" id="Fill-71" fill="#FFFFFF"></path>
            <polygon id="Fill-72" fill="#4C6887" points="711 2440 1143 2440 1143 2089 711 2089"></polygon>
            <path d="M1091,757.491164 L1091,835 L763,835 L763,757.491164 C762.995505,550.169612 1091.00449,550.169612 1091,757.491164" id="Fill-73" fill="#D5E0EB"></path>
            <polyline id="Fill-74" fill="#4C6887" points="1168 874.832075 1111.18519 818 741.805821 818 685 874.832075 685 1443 1168 1443 1168 874.832075"></polyline>
            <polyline id="Fill-75" fill="#04BCE6" points="526 2043 684.443776 2169 1167.54724 2169 1326 2043 526 2043"></polyline>
            <polyline id="Fill-76" fill="#04BCE6" points="1326 1443 1167.54724 1317 684.43479 1317 526 1443 1326 1443"></polyline>
            <polygon id="Fill-77" fill="#D5E0EB" points="526 2043 1326 2043 1326 1443 526 1443"></polygon>
            <polyline id="Fill-78" fill="#04BCE6" points="1403 1709.08613 1403 1906.91836 1363.98518 1946 488.014824 1946 449 1906.91836 449 1709.08613 488.014824 1670 1363.98518 1670 1403 1709.08613"></polyline>
            <polyline id="Fill-79" fill="#05D1FF" points="1400 1705 453 1705 488.222164 1670 1364.77784 1670 1400 1705"></polyline>
            <polyline id="Fill-80" fill="#0390B0" points="1403 1906 1403 1906.94382 1363.98518 1946 488.014824 1946 449 1906.94382 449 1906 1403 1906"></polyline>
            <polygon id="Fill-81" fill="#4C6887" points="128 2546 2627 2546 2627 2482 128 2482"></polygon>
            <polyline id="Fill-82" fill="#D5E0EB" points="256 2374.49077 340.573206 2290 2414.42679 2290 2499 2374.49077 2499 2482 256 2482 256 2374.49077"></polyline>
            <polygon id="Fill-83" fill="#EBF4FC" points="448 2290 2307 2290 2307 2226 448 2226"></polygon>
            <polygon id="Fill-84" fill="#04BCE6" points="2435 2482 2563 2482 2563 2450 2435 2450"></polygon>
            <polygon id="Fill-85" fill="#04BCE6" points="192 2482 320 2482 320 2450 192 2450"></polygon>
            <polygon id="Fill-86" fill="#04BCE6" points="1859 2226 2179 2226 2179 2162 1859 2162"></polygon>
            <polygon id="Fill-87" fill="#4C6887" points="1923 2162 2115 2162 2115 1906 1923 1906"></polygon>
            <polyline id="Fill-88" fill="#D5E0EB" points="2342 1494.11965 2261.80159 1414 1792.2074 1414 1712 1494.11965 1712 1985.86688 1792.2074 2066 2261.80159 2066 2342 1985.86688 2342 1494.11965"></polyline>
            <polyline id="Fill-89" fill="#EBF4FC" points="2342 1446.12808 2261.80159 1366 1792.2074 1366 1712 1446.12808 1712 1937.86294 1792.2074 2018 2261.80159 2018 2342 1937.86294 2342 1446.12808"></polyline>
            <polyline id="Fill-90" fill="#D5E0EB" points="2375 1834.55316 2337.64649 1872 2273.35351 1872 2236 1834.55316 2236 1515.45133 2273.35351 1478 2337.64649 1478 2375 1515.45133 2375 1834.55316"></polyline>
            <path d="M2329,1533.99776 C2329,1545.59942 2319.60043,1555 2308.00896,1555 C2296.39957,1555 2287,1545.59942 2287,1533.99776 C2287,1522.40058 2296.39957,1513 2308.00896,1513 C2319.60043,1513 2329,1522.40058 2329,1533.99776" id="Fill-91" fill="#4C6887"></path>
            <path d="M2329,1813.99552 C2329,1825.58945 2319.60043,1835 2308.00896,1835 C2296.39957,1835 2287,1825.58945 2287,1813.99552 C2287,1802.39261 2296.39957,1793 2308.00896,1793 C2319.60043,1793 2329,1802.39261 2329,1813.99552" id="Fill-92" fill="#4C6887"></path>
            <path d="M2165.12205,1744.27614 C2143.95145,1763.90795 1814.04631,1763.90795 1792.87122,1744.27614 C1771.70959,1724.65332 1771.70959,1486.34668 1792.87122,1466.72386 C1814.04631,1447.09205 2143.95145,1447.09205 2165.12205,1466.72386 C2186.29265,1486.34668 2186.29265,1724.65332 2165.12205,1744.27614" id="Fill-93" fill="#4C6887"></path>
            <path d="M1892.98562,1933.98776 C1868.97094,1958.00408 1830.02906,1958.00408 1806.01438,1933.98776 C1781.99521,1909.97143 1781.99521,1871.02969 1806.01438,1847.00887 C1830.02906,1822.99704 1868.97094,1822.99704 1892.98562,1847.00887 C1917.00479,1871.02969 1917.00479,1909.97143 1892.98562,1933.98776" id="Fill-94" fill="#04BCE6"></path>
            <path d="M1866.27216,1906.26609 C1857.28613,1915.24464 1842.70553,1915.24464 1833.72395,1906.26609 C1824.75572,1897.292 1824.75572,1882.71356 1833.74175,1873.73057 C1842.70553,1864.74758 1857.28613,1864.76538 1866.25881,1873.73057 C1875.24484,1882.71356 1875.24484,1897.292 1866.27216,1906.26609" id="Fill-95" fill="#EBF4FC"></path>
            <polyline id="Fill-96" fill="#4C6887" points="2003.41728 1948 1976 1920.50937 1976 1859.49513 2003.41728 1832 2158.57374 1832 2186 1859.49513 2186 1920.50937 2158.57374 1948 2003.41728 1948"></polyline>
            <path d="M2014.4977,1921 C2010.89502,1921 2008,1918.1704 2008,1914.65919 L2008,1865.35874 C2008,1861.84753 2010.89502,1859 2014.4977,1859 C2018.0912,1859 2021,1861.84753 2021,1865.35874 L2021,1914.65919 C2021,1918.1704 2018.0912,1921 2014.4977,1921" id="Fill-97" fill="#FFFFFF"></path>
            <path d="M2058.51376,1921 C2054.91284,1921 2052,1918.1704 2052,1914.65919 L2052,1865.35874 C2052,1861.84753 2054.91284,1859 2058.51376,1859 C2062.09174,1859 2065,1861.84753 2065,1865.35874 L2065,1914.65919 C2065,1918.1704 2062.09174,1921 2058.51376,1921" id="Fill-98" fill="#FFFFFF"></path>
            <path d="M2103.5023,1921 C2099.9088,1921 2097,1918.1704 2097,1914.65919 L2097,1865.35874 C2097,1861.84753 2099.9088,1859 2103.5023,1859 C2107.0866,1859 2110,1861.84753 2110,1865.35874 L2110,1914.65919 C2110,1918.1704 2107.0866,1921 2103.5023,1921" id="Fill-99" fill="#FFFFFF"></path>
            <path d="M2147.49312,1921 C2143.9164,1921 2141,1918.1704 2141,1914.65919 L2141,1865.35874 C2141,1861.84753 2143.9164,1859 2147.49312,1859 C2151.08818,1859 2154,1861.84753 2154,1865.35874 L2154,1914.65919 C2154,1918.1704 2151.08818,1921 2147.49312,1921" id="Fill-100" fill="#FFFFFF"></path>
            <polyline id="Fill-101" fill="#EBF4FC" points="1802.60033 1945 1795 1937.40415 1895.41759 1837 1903 1844.58689 1802.60033 1945"></polyline>
            <path d="M2143.01084,1725.29726 C2124.34964,1742.23425 1833.64251,1742.23425 1814.9858,1725.29726 C1796.33807,1708.35131 1796.33807,1502.64757 1814.9858,1485.7061 C1833.64251,1468.76463 2124.34964,1468.76463 2143.01084,1485.7061 C2161.66305,1502.64757 2161.66305,1708.35131 2143.01084,1725.29726" id="Fill-102" fill="#FFFFFF"></path>
            <path d="M2493,748.14678 C2493,979.533334 2305.34901,1167 2073.90126,1167 C1967.22329,1167 950.227593,1167 836.372188,1167 C637.393597,1167 476,1005.78828 476,806.853316 C476,607.931826 637.393597,446.589883 836.372188,446.589883 C879.342509,446.589883 920.516224,454.183027 958.792912,467.860563 C1026.64173,247.376522 1232.11505,87 1475.03413,87 C1672.62934,87 1845.35053,192.953758 1939.587,351.26473 C1981.73538,336.895683 2026.92001,329.16783 2073.90126,329.16783 C2305.34901,329.16783 2493,516.760225 2493,748.14678" id="Fill-103" fill="#04BCE6"></path>
            <path d="M2104,934.495526 C2104,955.207553 2087.20755,972 2066.5,972 C2045.79692,972 2029,955.207553 2029,934.495526 C2029,913.792447 2045.79692,897 2066.5,897 C2087.20755,897 2104,913.792447 2104,934.495526" id="Fill-104" fill="#4C6887"></path>
            <path d="M2190,1341 L2151.08782,1341 L2151.08782,1121.04044 C2151.08782,1111.41114 2143.25147,1103.5792 2133.62677,1103.5792 L2103.37323,1103.5792 C2072.28842,1103.5792 2047,1078.2905 2047,1047.20085 L2047,938.002921 C2047,908.665693 2085.90768,908.665693 2085.90768,938.002921 L2085.90768,1047.20085 C2085.90768,1056.83015 2093.74404,1064.6621 2103.37323,1064.6621 L2133.62677,1064.6621 C2164.71158,1064.6621 2190,1089.95529 2190,1121.04044 L2190,1341" id="Fill-105" fill="#D5E0EB"></path>
            <polygon id="Fill-106" fill="#04BCE6" points="2139 1366 2201 1366 2201 1341 2139 1341"></polygon>
            <path d="M883,932.495526 C883,953.207553 899.787973,970 920.504474,970 C941.207553,970 958,953.207553 958,932.495526 C958,911.792447 941.207553,895 920.504474,895 C899.787973,895 883,911.792447 883,932.495526" id="Fill-107" fill="#4C6887"></path>
            <path d="M779,1569.49329 C779,1590.20655 795.792447,1607 816.504474,1607 C837.207553,1607 854,1590.20655 854,1569.49329 C854,1548.79345 837.207553,1532 816.504474,1532 C795.792447,1532 779,1548.79345 779,1569.49329" id="Fill-108" fill="#4C6887"></path>
            <path d="M797.000002,1564.53393 C796.991015,1594.48869 835.91667,1594.48869 835.912177,1564.53393 L835.912177,1119.99226 C835.912177,1110.36523 843.744039,1102.53512 853.377723,1102.53512 L883.622279,1102.53512 C914.711579,1102.53512 940,1077.24787 940,1046.17002 L940,936.99775 C940,907.667417 901.087824,907.667417 901.087824,936.99775 L901.087824,1046.17002 C901.087824,1055.79706 893.255963,1063.62717 883.622279,1063.62717 L853.377723,1063.62717 C822.288422,1063.62717 797.000002,1088.91442 797.000002,1119.99226 L797.000002,1564.53393" id="Fill-109" fill="#EBF4FC"></path>
            <path d="M1081,932.495526 C1081,953.207553 1064.20755,970 1043.49553,970 C1022.79245,970 1006,953.207553 1006,932.495526 C1006,911.792447 1022.79245,895 1043.49553,895 C1064.20755,895 1081,911.792447 1081,932.495526" id="Fill-110" fill="#4C6887"></path>
            <path d="M1006,1569.50224 C1006,1548.79345 1022.79245,1532 1043.50447,1532 C1064.20755,1532 1081,1548.79345 1081,1569.50224 C1081,1590.20655 1064.20755,1607 1043.50447,1607 C1022.79245,1607 1006,1590.20655 1006,1569.50224" id="Fill-111" fill="#4C6887"></path>
            <path d="M1063,936.987999 L1062.95502,1565.00863 C1062.95502,1594.33046 1024,1594.33046 1024,1565.00863 L1024.04948,936.987999 C1024.04948,907.670667 1063,907.670667 1063,936.987999" id="Fill-112" fill="#EBF4FC"></path>
            <path d="M2323,702.5 C2323,716.03506 2312.03405,727 2298.50227,727 C2284.97049,727 2274,716.03506 2274,702.5 C2274,688.969473 2284.97049,678 2298.50227,678 C2312.03405,678 2323,688.969473 2323,702.5" id="Fill-113" fill="#4C6887"></path>
            <path d="M2225,702.5 C2225,716.03506 2214.03405,727 2200.4932,727 C2186.96595,727 2176,716.03506 2176,702.5 C2176,688.969473 2186.96595,678 2200.4932,678 C2214.03405,678 2225,688.969473 2225,702.5" id="Fill-114" fill="#4C6887"></path>
            <path d="M2323,969.5 C2323,983.03506 2312.03405,994 2298.50227,994 C2284.97049,994 2274,983.03506 2274,969.5 C2274,955.969473 2284.97049,945 2298.50227,945 C2312.03405,945 2323,955.969473 2323,969.5" id="Fill-115" fill="#4C6887"></path>
            <path d="M2225,969.5 C2225,983.03506 2214.03405,994 2200.4932,994 C2186.96595,994 2176,983.03506 2176,969.5 C2176,955.969473 2186.96595,945 2200.4932,945 C2214.03405,945 2225,955.969473 2225,969.5" id="Fill-116" fill="#4C6887"></path>
            <path d="M2213,968.874626 C2213,975.572067 2207.62176,981 2200.99112,981 C2194.36491,981 2189,975.572067 2189,968.874626 L2189,702.120888 C2189,695.423447 2194.36491,690 2200.99112,690 C2207.62176,690 2213,695.423447 2213,702.120888 L2213,968.874626" id="Fill-117" fill="#EBF4FC"></path>
            <path d="M2310,968.874626 C2310,975.572067 2304.6262,981 2298,981 C2291.3738,981 2286,975.572067 2286,968.874626 L2286,702.120888 C2286,695.423447 2291.3738,690 2298,690 C2304.6262,690 2310,695.423447 2310,702.120888 L2310,968.874626" id="Fill-118" fill="#EBF4FC"></path>
            <polygon id="Fill-119" fill="#D5E0EB" points="2213 769 2286 769 2286 757 2213 757"></polygon>
            <polygon id="Fill-120" fill="#D5E0EB" points="2213 817 2286 817 2286 805 2213 805"></polygon>
            <polygon id="Fill-121" fill="#D5E0EB" points="2213 866 2286 866 2286 854 2213 854"></polygon>
            <polygon id="Fill-122" fill="#D5E0EB" points="2213 915 2286 915 2286 903 2213 903"></polygon>
            <path d="M1904,602.5 C1904,840.258982 1711.26247,1033 1473.49775,1033 C1235.74202,1033 1043,840.258982 1043,602.5 C1043,364.736527 1235.74202,172 1473.49775,172 C1711.26247,172 1904,364.736527 1904,602.5" id="Fill-123" fill="#EBF4FC"></path>
            <path d="M1152.41095,342.340603 C1135.86302,325.797143 1135.86302,298.959474 1152.41095,282.416013 C1168.96338,265.859084 1195.79653,265.863574 1212.34447,282.416013 L1793.58736,863.654907 C1810.1353,880.202857 1810.13979,907.036037 1793.58736,923.583987 C1777.03943,940.140916 1750.20627,940.136426 1733.65385,923.583987 L1152.41095,342.340603" id="Fill-124" fill="#D5E0EB"></path>
            <path d="M1782.75271,912.753112 C1777.08966,918.416381 1767.91146,918.416381 1762.2439,912.748599 C1756.58537,907.089843 1756.58537,897.911285 1762.2439,892.248016 C1767.91146,886.584747 1777.08966,886.584747 1782.75271,892.243504 C1788.41576,897.911285 1788.41576,907.089843 1782.75271,912.753112" id="Fill-125" fill="#EBF4FC"></path>
            <path d="M1184.75189,313.753579 C1179.09225,319.413217 1169.91226,319.41773 1164.24811,313.753579 C1158.58396,308.093942 1158.58396,298.909443 1164.24811,293.245292 C1169.91226,287.585655 1179.09225,287.585655 1184.75189,293.240779 C1190.41604,298.909443 1190.41604,308.093942 1184.75189,313.753579" id="Fill-126" fill="#EBF4FC"></path>
            <path d="M1852,602 C1852,810.76563 1682.55076,980 1473.5,980 C1264.45822,980 1095,810.76563 1095,602 C1095,393.225393 1264.45822,224 1473.5,224 C1682.55076,224 1852,393.225393 1852,602" id="Fill-127" fill="#D5E0EB"></path>
            <path d="M1212.34447,923.585639 C1195.79653,940.13812 1168.95889,940.13812 1152.41095,923.585639 C1135.86302,907.037647 1135.86302,880.2044 1152.41095,863.656408 L1733.65385,282.416045 C1750.20627,265.863563 1777.03943,265.859074 1793.58736,282.416045 C1810.13979,298.964037 1810.1353,325.797284 1793.58736,342.340786 L1212.34447,923.585639" id="Fill-128" fill="#D5E0EB"></path>
            <path d="M1781.75263,293.247782 C1787.41579,298.906979 1787.41579,308.095277 1781.75263,313.758987 C1776.08947,319.413671 1766.91109,319.413671 1761.24793,313.758987 C1755.58477,308.095277 1755.58477,298.906979 1761.24342,293.247782 C1766.91109,287.584073 1776.08947,287.584073 1781.75263,293.247782" id="Fill-129" fill="#EBF4FC"></path>
            <path d="M1183.75552,891.248113 C1189.41031,896.90775 1189.41934,906.09225 1183.75552,911.751887 C1178.0917,917.416038 1168.90774,917.416038 1163.24843,911.751887 C1157.58461,906.09225 1157.58461,896.90775 1163.24392,891.248113 C1168.90774,885.583962 1178.0917,885.583962 1183.75552,891.248113" id="Fill-130" fill="#EBF4FC"></path>
            <path d="M1820,602.497756 C1820,793.865821 1664.87031,949 1473.49776,949 C1282.13418,949 1127,793.865821 1127,602.497756 C1127,411.125202 1282.13418,256 1473.49776,256 C1664.87031,256 1820,411.125202 1820,602.497756" id="Fill-131" fill="#FFFFFF"></path>
            <polyline id="Fill-132" fill="#4C6887" points="1350.90393 822 1273 821.973106 1273 817.490772 1349.04041 817.517666 1497.82529 669 1501 672.16901 1350.90393 822"></polyline>
            <path d="M1264.49545,834 C1256.50157,834 1250,827.493881 1250,819.49545 C1250,811.501569 1256.50157,805 1264.49545,805 C1272.49388,805 1279,811.501569 1279,819.49545 C1279,827.493881 1272.49388,834 1264.49545,834 Z M1264.49545,809.549733 C1259.01302,809.549733 1254.54973,814.013022 1254.54973,819.49545 C1254.54973,824.982429 1259.01302,829.450267 1264.49545,829.450267 C1269.98243,829.450267 1274.45027,824.982429 1274.45027,819.49545 C1274.45027,814.013022 1269.98243,809.549733 1264.49545,809.549733 Z" id="Fill-133" fill="#4C6887"></path>
            <path d="M1986.49549,1679 C1949.77444,1679 1920,1649.23108 1920,1612.50225 C1920,1575.77794 1949.77444,1546 1986.49549,1546 C2023.22556,1546 2053,1575.77794 2053,1612.50225 C2053,1649.23108 2023.22556,1679 1986.49549,1679 Z" id="Fill-134" fill="#FF008F"></path>
            <polygon id="Fill-143" fill="#D5E0EB" points="484 2443 2271 2443 2271 2341 484 2341"></polygon>
            <polyline id="Fill-144" fill="#EBF4FC" points="2271 2341 2271 2399.00636 2223.17072 2443 2134 2443 2244.89577 2341 2271 2341"></polyline>
            <polyline id="Fill-145" fill="#EBF4FC" points="2048.1576 2443 1959 2443 2069.83341 2341 2159 2341 2048.1576 2443"></polyline>
            <polyline id="Fill-146" fill="#EBF4FC" points="1872.1621 2443 1783 2443 1893.83341 2341 1983 2341 1872.1621 2443"></polyline>
            <polyline id="Fill-147" fill="#EBF4FC" points="1697.1686 2443 1608 2443 1718.8359 2341 1808 2341 1697.1686 2443"></polyline>
            <polyline id="Fill-148" fill="#EBF4FC" points="1522.1641 2443 1433 2443 1543.8314 2341 1633 2341 1522.1641 2443"></polyline>
            <polyline id="Fill-149" fill="#EBF4FC" points="1346.16659 2443 1257 2443 1367.83341 2341 1457 2341 1346.16659 2443"></polyline>
            <polyline id="Fill-150" fill="#EBF4FC" points="1171.1641 2443 1082 2443 1192.8359 2341 1282 2341 1171.1641 2443"></polyline>
            <polyline id="Fill-151" fill="#EBF4FC" points="995.166105 2443 906 2443 1016.8339 2341 1106 2341 995.166105 2443"></polyline>
            <polyline id="Fill-152" fill="#EBF4FC" points="820.164101 2443 731 2443 841.831404 2341 931 2341 820.164101 2443"></polyline>
            <polyline id="Fill-153" fill="#EBF4FC" points="645.169083 2443 556 2443 666.839907 2341 756 2341 645.169083 2443"></polyline>
            <polyline id="Fill-154" fill="#EBF4FC" points="580 2341 483 2430 483 2347.88358 490.514592 2341 580 2341"></polyline>
            <path d="M2068.26432,1690 L2061.62436,1684.00423 L2064.6032,1680.66277 C2083.78282,1659.11393 2093.48635,1631.33577 2091.91666,1602.44829 C2090.36035,1573.55182 2077.71812,1546.99976 2056.32221,1527.68306 L2053,1524.68742 L2058.95322,1518 L2062.27543,1521.00013 C2085.4417,1541.91571 2099.13187,1570.66397 2100.82196,1601.95425 C2102.52097,1633.24454 2092.01476,1663.32219 2071.2387,1686.65405 L2068.26432,1690" id="Fill-155" fill="#04BCE6"></path>
            <path d="M1908.05169,1699 L1904.72973,1696.00436 C1881.56073,1675.08429 1867.87158,1646.33603 1866.17716,1615.04126 C1864.48273,1583.75546 1874.98815,1553.67332 1895.7582,1530.34595 L1898.73236,1527 L1905.37628,1532.99577 L1902.39767,1536.34172 C1883.21502,1557.88158 1873.52114,1585.65974 1875.08179,1614.55171 C1876.65136,1643.44818 1889.28819,1669.99574 1910.6825,1689.31245 L1914,1692.31258 L1908.05169,1699" id="Fill-156" fill="#04BCE6"></path>
            <path d="M2097.28787,1716 L2090.62717,1710.00315 L2093.60884,1706.65659 C2119.7465,1677.36409 2132.96509,1639.60862 2130.83277,1600.32586 C2128.70045,1561.0431 2111.47203,1524.95417 2082.32588,1498.6893 L2079,1495.69312 L2084.96781,1489 L2088.29816,1492.00067 C2119.22348,1519.8647 2137.50241,1558.15922 2139.76437,1599.83623 C2142.02185,1641.51324 2127.99862,1681.57761 2100.27401,1712.65793 L2097.28787,1716" id="Fill-157" fill="#04BCE6"></path>
            <path d="M1882.03183,1728 L1878.70128,1725.0037 C1847.7741,1697.13857 1829.49855,1658.84254 1827.23646,1617.16837 C1824.97436,1575.48522 1839.00291,1535.41477 1866.73365,1504.3422 L1869.7155,1501 L1876.37213,1506.99709 L1873.38581,1510.33929 C1847.25105,1539.62845 1834.03167,1577.3944 1836.16412,1616.67423 C1838.2921,1655.95405 1855.52155,1692.05339 1884.66945,1718.31481 L1888,1721.31111 L1882.03183,1728" id="Fill-158" fill="#04BCE6"></path>
            <polygon id="Fill-159" fill="#D5E0EB" points="2183 1271 2316 1271 2316 1247 2183 1247"></polygon>
            <path d="M2462,1262.50225 C2462,1276.9953 2458.11635,1290.56929 2451.32671,1302.24662 C2437.63481,1326.00674 2411.91349,1342 2382.49775,1342 C2353.082,1342 2327.3697,1326.00674 2313.66878,1302.24662 C2306.88365,1290.56929 2303,1276.9953 2303,1262.50225 C2303,1218.59513 2338.59264,1183 2382.49775,1183 C2426.40736,1183 2462,1218.59513 2462,1262.50225" id="Fill-160" fill="#04BCE6"></path>
            <path d="M2334,1286.38737 C2334.44169,1287.29055 2334.94197,1288.1669 2335.43323,1289.04325 C2344.80332,1305.1708 2362.38068,1316 2382.48648,1316 C2402.62383,1316 2420.20119,1305.1708 2429.56226,1289.04325 C2430.05803,1288.1669 2430.56282,1287.29055 2431,1286.38737 C2420.4671,1271.04674 2402.65087,1261 2382.48648,1261 C2362.34913,1261 2344.5374,1271.04674 2334,1286.38737" id="Fill-161" fill="#4C6887"></path>
            <path d="M2328,1262.44851 C2328,1271.30203 2330.07305,1279.6499 2333.83409,1287 C2344.30231,1271.50972 2361.9971,1261.36496 2382.00224,1261.36496 C2402.03424,1261.36496 2419.73351,1271.50972 2430.19726,1287 C2433.92695,1279.6499 2436,1271.30203 2436,1262.44851 C2436,1232.37541 2411.82638,1208 2382.00224,1208 C2352.17362,1208 2328,1232.37541 2328,1262.44851" id="Fill-162" fill="#FFFFFF"></path>
            <path d="M2377,1233.53843 L2377,1269.46157 C2377,1272.51943 2379.46336,1275 2382.5,1275 C2385.54112,1275 2388,1272.51943 2388,1269.46157 L2388,1233.53843 C2388,1230.48057 2385.54112,1228 2382.5,1228 C2379.46336,1228 2377,1230.48057 2377,1233.53843" id="Fill-163" fill="#4C6887"></path>
            <path d="M2139.80004,1291.54912 C2143.53344,1296.15029 2200.47443,1296.15029 2204.20333,1291.54912 C2207.93222,1286.94346 2207.93222,1231.05542 2204.20333,1226.45425 C2200.47443,1221.84858 2143.53344,1221.84858 2139.80004,1226.45425 C2136.06665,1231.05542 2136.06665,1286.94346 2139.80004,1291.54912" id="Fill-164" fill="#04BCE6"></path>
            <polyline id="Fill-165" fill="#EBF4FC" points="754 574 727.546745 612 701 574 754 574"></polyline>
            <polyline id="Fill-166" fill="#EBF4FC" points="754 627 727.546745 665 701 627 754 627"></polyline>
            <polyline id="Fill-167" fill="#EBF4FC" points="754 679 727.546745 717 701 679 754 679"></polyline>
            <polyline id="Fill-168" fill="#EBF4FC" points="754 732 727.546745 770 701 732 754 732"></polyline>
            <polyline id="Fill-169" fill="#EBF4FC" points="754 785 727.546745 823 701 785 754 785"></polyline>
            <polyline id="Fill-170" fill="#EBF4FC" points="2996 1430 2949.08115 1496 2902 1430 2996 1430"></polyline>
            <polyline id="Fill-171" fill="#EBF4FC" points="2996 1522 2949.08115 1588 2902 1522 2996 1522"></polyline>
            <polyline id="Fill-172" fill="#EBF4FC" points="2996 1615 2949.08115 1681 2902 1615 2996 1615"></polyline>
            <polyline id="Fill-173" fill="#EBF4FC" points="2996 1707 2949.08115 1773 2902 1707 2996 1707"></polyline>
            <polyline id="Fill-174" fill="#EBF4FC" points="2996 1800 2949.08115 1866 2902 1800 2996 1800"></polyline>
            <path d="M2859,1359.99772 C2859,1364.96764 2854.97219,1369 2850.00228,1369 C2845.03236,1369 2841,1364.96764 2841,1359.99772 C2841,1355.03692 2845.03236,1351 2850.00228,1351 C2854.97219,1351 2859,1355.03692 2859,1359.99772" id="Fill-175" fill="#04BCE6"></path>
            <path d="M2859,1325.99545 C2859,1330.96662 2854.97219,1335 2850.00228,1335 C2845.03236,1335 2841,1330.96662 2841,1325.99545 C2841,1321.02883 2845.03236,1317 2850.00228,1317 C2854.97219,1317 2859,1321.02883 2859,1325.99545" id="Fill-176" fill="#04BCE6"></path>
            <path d="M2859,1293 C2859,1297.96662 2854.97219,1302 2850.00228,1302 C2845.03236,1302 2841,1297.96662 2841,1293 C2841,1288.03338 2845.03236,1284 2850.00228,1284 C2854.97219,1284 2859,1288.03338 2859,1293" id="Fill-177" fill="#04BCE6"></path>
            <path d="M2859,1260.00228 C2859,1264.96764 2854.97219,1269 2850.00228,1269 C2845.03236,1269 2841,1264.96764 2841,1260.00228 C2841,1255.03236 2845.03236,1251 2850.00228,1251 C2854.97219,1251 2859,1255.03236 2859,1260.00228" id="Fill-178" fill="#04BCE6"></path>
            <path d="M2859,1227.00228 C2859,1231.96764 2854.97219,1236 2850.00228,1236 C2845.03236,1236 2841,1231.96764 2841,1227.00228 C2841,1222.03236 2845.03236,1218 2850.00228,1218 C2854.97219,1218 2859,1222.03236 2859,1227.00228" id="Fill-179" fill="#04BCE6"></path>
            <path d="M2859,1193.99772 C2859,1198.96764 2854.97219,1203 2850.00228,1203 C2845.03236,1203 2841,1198.96764 2841,1193.99772 C2841,1189.02781 2845.03236,1185 2850.00228,1185 C2854.97219,1185 2859,1189.02781 2859,1193.99772" id="Fill-180" fill="#04BCE6"></path>
            <path d="M2859,1397.99545 C2859,1402.96662 2854.97219,1407 2850.00228,1407 C2845.03236,1407 2841,1402.96662 2841,1397.99545 C2841,1393.02883 2845.03236,1389 2850.00228,1389 C2854.97219,1389 2859,1393.02883 2859,1397.99545" id="Fill-181" fill="#04BCE6"></path>
            <path d="M2859,1435.99772 C2859,1440.96764 2854.97219,1445 2850.00228,1445 C2845.03236,1445 2841,1440.96764 2841,1435.99772 C2841,1431.02781 2845.03236,1427 2850.00228,1427 C2854.97219,1427 2859,1431.02781 2859,1435.99772" id="Fill-182" fill="#04BCE6"></path>
            <path d="M2859,1473.99545 C2859,1478.96662 2854.97219,1483 2850.00228,1483 C2845.03236,1483 2841,1478.96662 2841,1473.99545 C2841,1469.02883 2845.03236,1465 2850.00228,1465 C2854.97219,1465 2859,1469.02883 2859,1473.99545" id="Fill-183" fill="#04BCE6"></path>
            <path d="M2859,1512.00455 C2859,1516.97572 2854.97219,1521 2850.00228,1521 C2845.03236,1521 2841,1516.97572 2841,1512.00455 C2841,1507.03338 2845.03236,1503 2850.00228,1503 C2854.97219,1503 2859,1507.03338 2859,1512.00455" id="Fill-184" fill="#04BCE6"></path>
            <path d="M2859,1551.00683 C2859,1555.97674 2854.97219,1560 2850.00228,1560 C2845.03236,1560 2841,1555.97674 2841,1551.00683 C2841,1546.03692 2845.03236,1542 2850.00228,1542 C2854.97219,1542 2859,1546.03692 2859,1551.00683" id="Fill-185" fill="#04BCE6"></path>
            <path d="M2859,1589.00228 C2859,1593.97219 2854.97219,1598 2850.00228,1598 C2845.03236,1598 2841,1593.97219 2841,1589.00228 C2841,1584.03236 2845.03236,1580 2850.00228,1580 C2854.97219,1580 2859,1584.03236 2859,1589.00228" id="Fill-186" fill="#04BCE6"></path>
            <path d="M2859,1627.00228 C2859,1631.96764 2854.97219,1636 2850.00228,1636 C2845.03236,1636 2841,1631.96764 2841,1627.00228 C2841,1622.03236 2845.03236,1618 2850.00228,1618 C2854.97219,1618 2859,1622.03236 2859,1627.00228" id="Fill-187" fill="#04BCE6"></path>
            <path d="M2859,1665.00228 C2859,1669.96308 2854.97219,1674 2850.00228,1674 C2845.03236,1674 2841,1669.96308 2841,1665.00228 C2841,1660.03236 2845.03236,1656 2850.00228,1656 C2854.97219,1656 2859,1660.03236 2859,1665.00228" id="Fill-188" fill="#04BCE6"></path>
            <path d="M2824,1665.00228 C2824,1669.96308 2819.97117,1674 2815,1674 C2810.03338,1674 2806,1669.96308 2806,1665.00228 C2806,1660.03236 2810.03338,1656 2815,1656 C2819.97117,1656 2824,1660.03236 2824,1665.00228" id="Fill-189" fill="#04BCE6"></path>
            <path d="M2788,1665.00228 C2788,1669.96308 2783.97117,1674 2779.00455,1674 C2774.03338,1674 2770,1669.96308 2770,1665.00228 C2770,1660.03236 2774.03338,1656 2779.00455,1656 C2783.97117,1656 2788,1660.03236 2788,1665.00228" id="Fill-190" fill="#04BCE6"></path>
            <path d="M2752,1665.00228 C2752,1669.96308 2747.96764,1674 2742.99772,1674 C2738.02781,1674 2734,1669.96308 2734,1665.00228 C2734,1660.03236 2738.02781,1656 2742.99772,1656 C2747.96764,1656 2752,1660.03236 2752,1665.00228" id="Fill-191" fill="#04BCE6"></path>
            <path d="M2716,1665.00228 C2716,1669.96308 2711.97219,1674 2707.00228,1674 C2702.03236,1674 2698,1669.96308 2698,1665.00228 C2698,1660.03236 2702.03236,1656 2707.00228,1656 C2711.97219,1656 2716,1660.03236 2716,1665.00228" id="Fill-192" fill="#04BCE6"></path>
            <path d="M2680,1665.00228 C2680,1669.96308 2675.97117,1674 2671,1674 C2666.02883,1674 2662,1669.96308 2662,1665.00228 C2662,1660.03236 2666.02883,1656 2671,1656 C2675.97117,1656 2680,1660.03236 2680,1665.00228" id="Fill-193" fill="#04BCE6"></path>
            <path d="M2644,1665.00228 C2644,1669.96308 2639.97117,1674 2635,1674 C2630.03338,1674 2626,1669.96308 2626,1665.00228 C2626,1660.03236 2630.03338,1656 2635,1656 C2639.97117,1656 2644,1660.03236 2644,1665.00228" id="Fill-194" fill="#04BCE6"></path>
            <path d="M2609,1665.00228 C2609,1669.96308 2604.96764,1674 2599.99772,1674 C2595.02781,1674 2591,1669.96308 2591,1665.00228 C2591,1660.03236 2595.02781,1656 2599.99772,1656 C2604.96764,1656 2609,1660.03236 2609,1665.00228" id="Fill-195" fill="#04BCE6"></path>
            <path d="M2573,1665.00228 C2573,1669.96308 2568.96308,1674 2563.99317,1674 C2559.02781,1674 2555,1669.96308 2555,1665.00228 C2555,1660.03236 2559.02781,1656 2563.99317,1656 C2568.96308,1656 2573,1660.03236 2573,1665.00228" id="Fill-196" fill="#04BCE6"></path>
            <path d="M2537,1665.00228 C2537,1669.96308 2532.97219,1674 2528.00228,1674 C2523.03692,1674 2519,1669.96308 2519,1665.00228 C2519,1660.03236 2523.03692,1656 2528.00228,1656 C2532.97219,1656 2537,1660.03236 2537,1665.00228" id="Fill-197" fill="#04BCE6"></path>
            <path d="M532,1814.49776 C532,1828.58638 543.413623,1840 557.497756,1840 C571.581889,1840 583,1828.58638 583,1814.49776 C583,1800.4226 571.581889,1789 557.497756,1789 C543.413623,1789 532,1800.4226 532,1814.49776" id="Fill-198" fill="#4C6887"></path>
            <path d="M546,1814.49775 C546,1820.85034 551.153153,1826 557.5,1826 C563.846847,1826 569,1820.85034 569,1814.49775 C569,1808.15416 563.846847,1803 557.5,1803 C551.153153,1803 546,1808.15416 546,1814.49775" id="Fill-199" fill="#FFFFFF"></path>
            <path d="M601,1814.49776 C601,1828.58638 612.4226,1840 626.497756,1840 C640.586377,1840 652,1828.58638 652,1814.49776 C652,1800.4226 640.586377,1789 626.497756,1789 C612.4226,1789 601,1800.4226 601,1814.49776" id="Fill-200" fill="#4C6887"></path>
            <path d="M615,1814.49775 C615,1820.85034 620.149657,1826 626.497747,1826 C632.850343,1826 638,1820.85034 638,1814.49775 C638,1808.15416 632.850343,1803 626.497747,1803 C620.149657,1803 615,1808.15416 615,1814.49775" id="Fill-201" fill="#FFFFFF"></path>
            <path d="M670,1814.49776 C670,1828.58638 681.418111,1840 695.497756,1840 C709.581889,1840 721,1828.58638 721,1814.49776 C721,1800.4226 709.581889,1789 695.497756,1789 C681.418111,1789 670,1800.4226 670,1814.49776" id="Fill-202" fill="#4C6887"></path>
            <path d="M684,1814.49775 C684,1820.85034 689.145152,1826 695.497747,1826 C701.850343,1826 707,1820.85034 707,1814.49775 C707,1808.15416 701.850343,1803 695.497747,1803 C689.145152,1803 684,1808.15416 684,1814.49775" id="Fill-203" fill="#FFFFFF"></path>
            <path d="M3208,1228.05294 C3208,1306.47125 3144.45906,1370 3066.08113,1370 C3029.95608,1370 2685.57173,1370 2647.018,1370 C2579.64772,1370 2525,1315.36904 2525,1247.95059 C2525,1180.53663 2579.64772,1125.86076 2647.018,1125.86076 C2661.57666,1125.86076 2675.5158,1128.43443 2688.48077,1133.06973 C2711.45679,1058.34799 2781.04027,1004 2863.29243,1004 C2930.2048,1004 2988.69083,1039.9056 3020.60496,1093.54841 C3034.87631,1088.68404 3050.17569,1086.06546 3066.08113,1086.06546 C3144.45906,1086.06546 3208,1149.63913 3208,1228.05294" id="Fill-204" fill="#04BCE6"></path>
            <polyline id="Fill-205" fill="#4C6887" points="1377.2264 720 1374 716.877083 1615.02722 469 1693 469.022435 1693 473.509385 1616.928 473.48695 1377.2264 720"></polyline>
            <path d="M1702.50683,485 C1694.50714,485 1688,478.494902 1688,470.497725 C1688,462.505098 1694.50714,456 1702.50683,456 C1710.49741,456 1717,462.505098 1717,470.497725 C1717,478.494902 1710.49741,485 1702.50683,485 Z M1702.50683,460.553569 C1697.01899,460.553569 1692.55045,465.011608 1692.55045,470.497725 C1692.55045,475.988392 1697.01899,480.45098 1702.50683,480.45098 C1707.99011,480.45098 1712.44955,475.988392 1712.44955,470.497725 C1712.44955,465.011608 1707.99011,460.553569 1702.50683,460.553569 Z" id="Fill-206" fill="#4C6887"></path>
            <polygon id="Fill-207" fill="#4C6887" points="1670 519 1767 519 1767 504 1670 504"></polygon>
            <polygon id="Fill-208" fill="#4C6887" points="1670 549 1743 549 1743 534 1670 534"></polygon>
            <polygon id="Fill-209" fill="#4C6887" points="1174 682 1224 682 1224 672 1174 672"></polygon>
            <polygon id="Fill-210" fill="#4C6887" points="1174 705 1236 705 1236 695 1174 695"></polygon>
            <polygon id="Fill-211" fill="#4C6887" points="1174 728 1257 728 1257 718 1174 718"></polygon>
            <polygon id="Fill-212" fill="#4C6887" points="1174 751 1236 751 1236 741 1174 741"></polygon>
            <polygon id="Fill-213" fill="#4C6887" points="1670 580 1743 580 1743 565 1670 565"></polygon>
            <path d="M1172,585 L1206,585 L1206,565 L1172,565 L1172,585 Z M1176.44038,580.52172 L1201.55962,580.52172 L1201.55962,569.47828 L1176.44038,569.47828 L1176.44038,580.52172 Z" id="Fill-214" fill="#D5E0EB"></path>
            <path d="M1172,618 L1206,618 L1206,598 L1172,598 L1172,618 Z M1176.44038,613.52172 L1201.55962,613.52172 L1201.55962,602.47828 L1176.44038,602.47828 L1176.44038,613.52172 Z" id="Fill-215" fill="#D5E0EB"></path>
            <path d="M1172,651 L1206,651 L1206,631 L1172,631 L1172,651 Z M1176.44038,646.52172 L1201.55962,646.52172 L1201.55962,635.47828 L1176.44038,635.47828 L1176.44038,646.52172 Z" id="Fill-216" fill="#D5E0EB"></path>
            <path d="M1375,470.502248 C1375,512.217117 1341.21712,546 1299.50225,546 C1257.78738,546 1224,512.217117 1224,470.502248 C1224,428.78738 1257.78738,395 1299.50225,395 C1341.21712,395 1375,428.78738 1375,470.502248" id="Fill-217" fill="#D5E0EB"></path>
            <path d="M1994.48985,1581.087 L2012.51097,1591.537 C2015.49075,1588.38734 2020.4461,1588.26267 2023.58291,1591.25467 C2024.12336,1591.768 2024.58347,1592.35833 2024.9596,1593.00367 C2027.11045,1596.773 2025.80679,1601.58 2022.05285,1603.73967 C2021.41745,1604.10633 2020.73459,1604.38133 2020.0152,1604.55733 L2020.0152,1625.45367 C2024.20005,1626.45467 2026.78545,1630.67133 2025.78488,1634.87333 C2025.6096,1635.62133 2025.32112,1636.34 2024.93769,1637.00367 C2022.77588,1640.75466 2017.99581,1642.04166 2014.24917,1639.871 C2013.53344,1639.45667 2012.87979,1638.92133 2012.32838,1638.298 L1994.41681,1648.682 C1995.77524,1652.80333 1993.54771,1657.24366 1989.44685,1658.604 C1988.65444,1658.86433 1987.8328,1659 1987.00022,1659 C1982.68756,1659.00366 1979.18924,1655.49833 1979.18559,1651.168 C1979.18559,1650.41633 1979.29149,1649.66466 1979.50694,1648.935 L1961.48216,1638.496 C1958.50238,1641.62733 1953.55433,1641.74833 1950.43213,1638.75267 C1947.31358,1635.76067 1947.19673,1630.79233 1950.17651,1627.65733 C1951.20994,1626.56833 1952.53551,1625.802 1953.98888,1625.44633 L1953.99254,1604.55 C1949.79308,1603.538 1947.20768,1599.29567 1948.2192,1595.07533 C1948.39083,1594.34933 1948.66836,1593.649 1949.03718,1593 C1951.19899,1589.24534 1955.98271,1587.962 1959.7257,1590.13267 C1960.37205,1590.503 1960.96362,1590.96867 1961.47851,1591.515 L1979.51059,1581.065 C1978.28362,1576.91067 1980.64627,1572.551 1984.77268,1571.32267 C1985.49207,1571.10634 1986.24797,1571 1987.00022,1571 C1991.31287,1570.99634 1994.81119,1574.498 1994.81485,1578.82467 C1994.8185,1579.591 1994.7053,1580.35734 1994.48985,1581.087 Z M1992.21275,1584 C1992.14305,1584.07655 1992.07703,1584.14216 1992,1584.21142 L2015.69922,1625 C2015.79459,1624.96719 2015.90463,1624.94168 2016,1624.91616 L2016,1604.11362 C2011.80009,1603.08206 2009.24347,1598.8574 2010.28519,1594.68012 C2010.3072,1594.59264 2010.32921,1594.50151 2010.35488,1594.41767 L1992.21275,1584 Z M1981.99267,1584.21869 L1981.77265,1584 L1963.63606,1594.39488 C1964.83514,1598.53169 1962.43697,1602.84345 1958.27869,1604.03529 C1958.18335,1604.06445 1958.09167,1604.08632 1958,1604.11183 L1958,1624.91617 L1958.30802,1625 L1982,1584.21504 L1981.99267,1584.21869 Z M1989.64999,1587 C1988.24075,1587.4121 1986.74841,1587.4121 1985.34278,1587 L1962,1628.16966 C1963.06235,1629.21096 1963.81394,1630.54293 1964.16806,1632 L2010.8211,1632 C2011.1716,1630.53557 2011.93042,1629.19992 2013,1628.15863 L1989.64999,1587 Z M1992.82474,1646 L2011,1635.52416 C2010.94451,1635.35067 2010.90012,1635.17718 2010.85942,1635 L1963.07769,1635 L1963,1635.30638 L1981.27145,1645.83389 C1982.70682,1644.34262 1984.72671,1643.42349 1986.96855,1643.42349 C1989.28809,1643.42349 1991.37087,1644.41644 1992.82474,1646 Z" id="Shape" fill="#FFFFFF" fill-rule="nonzero"></path>
            <path d="M1374,470 L1299,470 L1299,395 C1340.43985,395 1374,428.562623 1374,470" id="Fill-218" fill="#EBF4FC"></path>
            <polyline id="Fill-219" fill="#D5E0EB" points="1505.61963 406 1483 385.084919 1486.06631 381.828492 1504.30228 398.689745 1524.98411 358 1543.51683 392.519907 1559.95888 363.002691 1586 381.650302 1583.36531 385.263109 1561.44258 369.560093 1543.44489 401.870441 1525.09202 367.689095 1505.61963 406"></polyline>
            <path d="M1483,420 L1588,420 L1588,348 L1483,348 L1483,420 Z M1487.51147,415.514592 L1583.48853,415.514592 L1583.48853,352.494388 L1487.51147,352.494388 L1487.51147,415.514592 Z" id="Fill-220" fill="#D5E0EB"></path>
            <polygon id="Fill-221" fill="#D5E0EB" points="1601 364 1639 364 1639 352 1601 352"></polygon>
            <polygon id="Fill-222" fill="#D5E0EB" points="1601 390 1639 390 1639 378 1601 378"></polygon>
            <polygon id="Fill-223" fill="#D5E0EB" points="1601 415 1639 415 1639 403 1601 403"></polygon>
            <polygon id="Fill-224" fill="#D5E0EB" points="1649 364 1687 364 1687 352 1649 352"></polygon>
            <polygon id="Fill-225" fill="#D5E0EB" points="1649 390 1687 390 1687 378 1649 378"></polygon>
            <polygon id="Fill-226" fill="#D5E0EB" points="1649 415 1687 415 1687 403 1649 403"></polygon>
            <path d="M1485.00224,806 C1401.04637,806 1333,737.955642 1333,654.006734 C1333,570.053336 1401.04637,502 1485.00224,502 C1568.95363,502 1637,570.053336 1637,654.006734 C1637,737.955642 1568.95363,806 1485.00224,806 Z" id="Fill-227" fill="#FF008F"></path>
            <path d="M1503.64847,569.300505 L1547.31503,594.475504 C1554.53528,586.887671 1566.54248,586.587338 1574.1432,593.795337 C1575.45276,595.032004 1576.56765,596.45417 1577.47903,598.008837 C1582.6907,607.089503 1579.53184,618.670002 1570.43575,623.872835 C1568.89614,624.756168 1567.2415,625.418668 1565.49837,625.842668 L1565.49837,676.183832 C1575.63857,678.595332 1581.9032,688.753664 1579.47875,698.876664 C1579.05403,700.678663 1578.35501,702.409997 1577.42594,704.00883 C1572.18772,713.045329 1560.60524,716.145829 1551.52684,710.916496 C1549.79257,709.918329 1548.20872,708.628663 1546.87262,707.126996 L1503.47151,732.142995 C1506.76309,742.071661 1501.3656,752.768827 1491.42891,756.045993 C1489.50882,756.67316 1487.51795,756.999993 1485.50053,756.999993 C1475.05063,757.008826 1466.57392,748.56416 1466.56508,738.131994 C1466.56508,736.321161 1466.82168,734.510328 1467.34373,732.752495 L1423.66832,707.603996 C1416.44807,715.147662 1404.45857,715.439162 1396.89324,708.22233 C1389.33676,701.01433 1389.05361,689.045164 1396.27386,681.492665 C1398.77794,678.869165 1401.98989,677.022998 1405.51153,676.166165 L1405.52037,625.825002 C1395.34478,623.387002 1389.08016,613.166836 1391.53115,602.99967 C1391.94702,601.25067 1392.61949,599.563503 1393.51318,598.000003 C1398.75139,588.954671 1410.34272,585.863004 1419.41227,591.092337 C1420.97842,591.984504 1422.41186,593.106337 1423.65947,594.422504 L1467.35258,569.247505 C1464.37954,559.239339 1470.10441,548.736507 1480.10304,545.77734 C1481.84616,545.256174 1483.67777,545.000007 1485.50053,545.000007 C1495.95042,544.991174 1504.42713,553.427006 1504.43597,563.850339 C1504.44482,565.696506 1504.17052,567.542672 1503.64847,569.300505 Z M1499.09158,577.047338 C1498.92346,577.232838 1498.76419,577.391838 1498.57837,577.559671 L1555.7475,676.404665 C1555.97756,676.325165 1556.24301,676.263332 1556.47307,676.201498 L1556.47307,625.789668 C1546.34172,623.289835 1540.17442,613.052002 1542.68735,602.929003 C1542.74044,602.717003 1542.79353,602.49617 1542.85547,602.293003 L1499.09158,577.047338 Z M1472.41383,577.568505 L1471.88293,577.038505 L1428.11904,602.23117 C1431.01244,612.257003 1425.22563,622.706835 1415.19161,625.595335 C1414.96155,625.666002 1414.74034,625.719002 1414.51914,625.780835 L1414.51914,676.201498 L1415.2624,676.404665 L1472.43153,577.559671 L1472.41383,577.568505 Z M1490.78298,582.047005 C1487.33213,583.036338 1483.67777,583.036338 1480.23576,582.047005 L1423.07548,680.883165 C1425.67689,683.382998 1427.51735,686.580664 1428.38449,690.078664 L1542.62541,690.078664 C1543.4837,686.562998 1545.34185,683.356498 1547.96096,680.856665 L1490.78298,582.047005 Z M1499.50745,725.385495 L1542.97935,700.316497 C1542.84662,699.90133 1542.74044,699.486164 1542.64311,699.062164 L1428.35794,699.062164 L1428.17213,699.79533 L1471.87408,724.987995 C1475.30724,721.419329 1480.13843,719.219829 1485.50053,719.219829 C1491.04843,719.219829 1496.03005,721.595995 1499.50745,725.385495 Z" id="Shape" fill="#FFFFFF" fill-rule="nonzero"></path>
        </g>
    </g>
</svg>